<svg xmlns="http://www.w3.org/2000/svg" xmlns:xlink="http://www.w3.org/1999/xlink" width="32" height="32" version="1.1"><defs id="defs5455"><linearGradient id="linearGradient4143"><stop id="stop4145" stop-color="#197cf1"/><stop id="stop4147" offset="1" stop-color="#20bcfa"/></linearGradient><linearGradient id="linearGradient4149" x2="0" y1="545.798" y2="517.798" gradientTransform="matrix(0.92857108 0 0 0.92857057 28.612354 37.986142)" gradientUnits="userSpaceOnUse" xlink:href="#linearGradient4143"/><linearGradient id="linearGradient4290"><stop id="stop4292" stop-color="#7cbaf8"/><stop id="stop4294" offset="1" stop-color="#f4fcff"/></linearGradient><linearGradient id="linearGradient4144" x2="0" y1="30" y2="2" gradientUnits="userSpaceOnUse" xlink:href="#linearGradient4290"/><linearGradient id="linearGradient4227"><stop id="stop4229" stop-color="#292c2f"/><stop id="stop4231" offset="1" stop-opacity="0"/></linearGradient><linearGradient id="linearGradient4191" x1="9" x2="23" y1="9" y2="23" gradientUnits="userSpaceOnUse" xlink:href="#linearGradient4227"/></defs><metadata id="metadata5458"/><g id="layer1" transform="matrix(1 0 0 1 -384.57143 -515.798)"><rect id="rect4130" width="26" height="26" x="387.571" y="518.798" fill="url(#linearGradient4149)" rx="13"/><path id="path4184" fill="url(#linearGradient4191)" fill-rule="evenodd" d="M 17 9 L 15 11 L 17 13 L 15 23 L 23 31 L 26 31 L 29 31 L 31 31 L 31 27 L 31 23 L 17 9 z" opacity=".2" transform="matrix(1 0 0 1 384.57143 515.798)"/><path id="rect4133" fill="url(#linearGradient4144)" d="M 16,2 C 8.4128491,2 2.2891329,7.9794391 2.0253906,15.5 2.0195214,15.66736 2,15.831158 2,16 c 0,7.756003 6.2439968,14 14,14 7.756003,0 14,-6.243997 14,-14 0,-0.168842 -0.01952,-0.33264 -0.02539,-0.5 C 29.710867,7.9794391 23.587151,2 16,2 Z m 0,1 C 23.201993,3 29,8.7980074 29,16 29,23.201993 23.201993,29 16,29 8.7980074,29 3,23.201993 3,16 3,8.7980074 8.7980074,3 16,3 Z m -1,6 0,2 2,0 0,-2 z m 0,4 0,10 2,0 0,-10 z" transform="matrix(1 0 0 1 384.57143 515.798)"/></g></svg>