<svg xmlns="http://www.w3.org/2000/svg" xmlns:xlink="http://www.w3.org/1999/xlink" width="64" height="64" version="1.1"><defs id="defs3811"><linearGradient id="linearGradient4416" x2="0" y1="44" y2="7" gradientTransform="matrix(-1.4054053 0 0 1.4054053 804.69502 154.09579)" gradientUnits="userSpaceOnUse" xlink:href="#linearGradient4143-6"/><linearGradient id="linearGradient4144" x2="0" y1="30" y2="2" gradientTransform="matrix(2 0 0 -2 0 53)" gradientUnits="userSpaceOnUse" xlink:href="#linearGradient4155"/><linearGradient id="linearGradient4155"><stop id="stop4157" stop-color="#fcd994"/><stop id="stop4159" offset="1" stop-color="#fff6e1"/></linearGradient><linearGradient id="linearGradient4143-6"><stop id="stop4145-8" stop-color="#faae2a"/><stop id="stop4147-0" offset="1" stop-color="#ffc35a"/></linearGradient><linearGradient id="linearGradient4191" x1="17" x2="45" y1="13" y2="41" gradientUnits="userSpaceOnUse" xlink:href="#linearGradient4227"/><linearGradient id="linearGradient4227"><stop id="stop4229" stop-color="#292c2f"/><stop id="stop4231" offset="1" stop-opacity="0"/></linearGradient></defs><metadata id="metadata3814"/><g id="layer1" transform="matrix(1 0 0 1 -736.85718 -157.93361)"><path id="path4445" fill="url(#linearGradient4416)" fill-rule="evenodd" d="m 794.85718,163.93361 0,37.94594 -25.29727,0 -14.05412,14.05406 0,-14.05406 -12.64861,0 0,-37.94594 z"/><path id="path4256" fill="#e59305" fill-rule="evenodd" d="M 6 42.945312 L 6 43.945312 L 18.648438 43.945312 L 18.648438 42.945312 L 6 42.945312 z M 32.703125 42.945312 L 18.648438 57 L 18.648438 58 L 32.703125 43.945312 L 58 43.945312 L 58 42.945312 L 32.703125 42.945312 z" transform="matrix(1 0 0 1 736.85718 157.93361)"/><path id="path4186" fill="url(#linearGradient4191)" fill-rule="evenodd" d="M 32 13 L 32 15 L 44 35.785156 L 44.701172 37 L 19 37 L 29.324219 47.324219 L 32.703125 43.945312 L 58 43.945312 L 58 39 L 32 13 z" opacity=".2" transform="matrix(1 0 0 1 736.85718 157.93361)"/><path id="rect4133" fill="url(#linearGradient4144)" d="M 32,13 18.853516,37 19.992188,37 20,36.986328 20,37 l 24,0 0,-0.01367 0.0078,0.01367 1.138672,0 z M 32,15.076172 43.460938,36 20.539062,36 Z M 31,20 l 0,10 2,0 0,-10 z m 0,12 0,2 2,0 0,-2 z" transform="matrix(1 0 0 1 736.85718 157.93361)"/></g></svg>