<svg xmlns="http://www.w3.org/2000/svg" xmlns:xlink="http://www.w3.org/1999/xlink" width="64" height="64" version="1.1"><defs id="defs3811"><linearGradient id="linearGradient4227"><stop id="stop4229" stop-color="#292c2f"/><stop id="stop4231" offset="1" stop-opacity="0"/></linearGradient><linearGradient id="linearGradient4191-1-7" x1="9" x2="23" y1="9" y2="23" gradientTransform="matrix(2 0 0 2 735.85719 158.93361)" gradientUnits="userSpaceOnUse" xlink:href="#linearGradient4227"/><linearGradient id="linearGradient4181" x1="32" x2="31" y1="6" y2="57" gradientUnits="userSpaceOnUse" xlink:href="#linearGradient4298"/><linearGradient id="linearGradient4374"><stop id="stop4376" stop-color="#bcfd93"/><stop id="stop4378" offset="1" stop-color="#fafff5"/></linearGradient><linearGradient id="linearGradient4298"><stop id="stop4300" stop-color="#42a603"/><stop id="stop4302" offset="1" stop-color="#78da06"/></linearGradient><linearGradient id="linearGradient4189" x2="0" y1="199.934" y2="175.934" gradientUnits="userSpaceOnUse" xlink:href="#linearGradient4374"/></defs><metadata id="metadata3814"/><g id="layer1" transform="matrix(1 0 0 1 -736.85718 -157.93361)"><path id="rect4186-2-1" fill="url(#linearGradient4181)" stroke-linecap="square" stroke-width="2" d="M 32 6 C 25.66667 9.35447 19.33333 10.72491 13 12 L 13 37 C 13 44 23.26331 53.561337 32 57.998047 C 40.73669 53.561337 51 44 51 37 L 51 12 C 44.66667 10.72491 38.33333 9.35447 32 6 z" transform="matrix(1 0 0 1 736.85718 157.93361)"/><path id="path4184-5" fill="url(#linearGradient4191-1-7)" fill-rule="evenodd" d="m 779.85718,175.93361 -8,14 -7,8 -7,-3 8,8 12,13 17,0 0,-27 z" opacity=".2"/><path id="path4179" fill="url(#linearGradient4189)" fill-rule="evenodd" stroke-width="2" d="m 779.01953,175.38672 -14.42969,22.12695 -6.15234,-4.39453 -1.16211,1.62891 7.84961,5.60547 15.57031,-23.87305 -1.67578,-1.09375 z" color="#000" color-interpolation="sRGB" color-interpolation-filters="linearRGB" color-rendering="auto" image-rendering="auto" shape-rendering="auto" text-rendering="auto"/><path id="rect4186-2-1-5" fill="#368902" stroke-linecap="square" stroke-width="2" d="m 749.85718,192.93361 0,2 c 0,7 10.26331,16.56134 19,20.99805 8.73669,-4.43671 19,-13.99805 19,-20.99805 l 0,-2 c 0,7 -10.26331,16.56134 -19,20.99805 -8.73669,-4.43671 -19,-13.99805 -19,-20.99805 z"/></g></svg>